# xmcd
#
# Track frame offsets: 
#        150
#        16865
#        33958
#        50480
#        65286
#        80616
#        99166
#        115183
#        132065
#
# Disc length: 1988 seconds
#
# Revision: 1
# Processed by: cddbd v1.5.2PL0 Copyright (c) Steve Scherf et al.
# Submitted via: ExactAudioCopyFreeDBPlugin 1.0
#
DISCID=6407c209
DTITLE=Saulius Mykolaitis - Nieko nepasakyta
DYEAR=1900
DGENRE=Ballad
TTITLE0=Užrakintas Dangus
TTITLE1=Nieko Nepasakyta
TTITLE2=Nemiga
TTITLE3=Kiemsargis
TTITLE4=Arbata
TTITLE5=Kalėdos
TTITLE6=Karklė
TTITLE7=Matrica
TTITLE8=Sudie
EXTD=
EXTT0=
EXTT1=
EXTT2=
EXTT3=
EXTT4=
EXTT5=
EXTT6=
EXTT7=
EXTT8=
PLAYORDER=
